<svg width="1400" height="400" viewBox="0 0 1400 400" fill="none" xmlns="http://www.w3.org/2000/svg">
<rect width="1400" height="400" fill="white"/>
<rect width="1400" height="400" fill="#121212"/>
<rect x="465.5" y="170.5" width="469" height="59" stroke="white"/>
<g filter="url(#filter0_d_28_26)">
<path d="M498.565 211H490.043L493.665 189.182H501.847C504.091 189.182 505.966 189.633 507.472 190.535C508.977 191.437 510.046 192.726 510.678 194.402C511.31 196.078 511.435 198.074 511.051 200.389C510.682 202.619 509.933 204.526 508.803 206.11C507.681 207.694 506.246 208.905 504.499 209.743C502.759 210.581 500.781 211 498.565 211ZM496.797 205.972H498.949C500.028 205.972 500.991 205.783 501.836 205.407C502.688 205.023 503.398 204.384 503.967 203.489C504.542 202.587 504.957 201.355 505.213 199.793C505.455 198.315 505.447 197.175 505.192 196.373C504.936 195.563 504.45 195.002 503.732 194.69C503.015 194.37 502.088 194.21 500.952 194.21H498.757L496.797 205.972ZM512.045 211L515.667 189.182H531.391L530.581 193.955H520.78L520.184 197.705H529.175L528.366 202.477H519.374L518.778 206.227H528.536L527.726 211H512.045ZM544.94 196C545.004 195.297 544.833 194.746 544.428 194.349C544.023 193.944 543.342 193.741 542.383 193.741C541.772 193.741 541.261 193.812 540.849 193.955C540.444 194.097 540.128 194.292 539.901 194.54C539.68 194.789 539.542 195.077 539.485 195.403C539.421 195.659 539.425 195.893 539.496 196.107C539.574 196.312 539.719 196.501 539.933 196.671C540.153 196.842 540.44 196.994 540.795 197.129C541.158 197.264 541.587 197.385 542.085 197.491L543.789 197.875C544.954 198.131 545.93 198.468 546.719 198.887C547.514 199.299 548.139 199.789 548.594 200.357C549.048 200.925 549.347 201.561 549.489 202.264C549.638 202.967 549.641 203.734 549.499 204.565C549.258 206 548.7 207.214 547.827 208.209C546.953 209.203 545.813 209.96 544.407 210.478C543.001 210.996 541.374 211.256 539.528 211.256C537.638 211.256 536.033 210.975 534.712 210.414C533.398 209.846 532.447 208.979 531.857 207.815C531.275 206.643 531.133 205.148 531.431 203.33H537.056C536.971 203.997 537.042 204.558 537.269 205.013C537.496 205.467 537.862 205.812 538.366 206.046C538.871 206.281 539.499 206.398 540.252 206.398C540.891 206.398 541.438 206.32 541.893 206.163C542.347 206.007 542.706 205.79 542.969 205.513C543.232 205.237 543.391 204.92 543.448 204.565C543.505 204.239 543.448 203.947 543.278 203.692C543.107 203.436 542.798 203.205 542.351 202.999C541.903 202.793 541.289 202.605 540.508 202.435L538.42 201.966C536.566 201.54 535.167 200.837 534.222 199.857C533.278 198.876 532.944 197.534 533.221 195.83C533.448 194.437 534.02 193.223 534.936 192.186C535.859 191.142 537.031 190.332 538.452 189.757C539.879 189.175 541.46 188.884 543.192 188.884C544.954 188.884 546.428 189.178 547.614 189.768C548.807 190.357 549.663 191.185 550.181 192.25C550.707 193.315 550.849 194.565 550.607 196H544.94ZM552.903 193.955L553.713 189.182H572.676L571.866 193.955H565.304L562.491 211H556.653L559.466 193.955H552.903ZM571.283 211L574.905 189.182H584.323C585.942 189.182 587.309 189.477 588.424 190.066C589.539 190.656 590.342 191.504 590.832 192.612C591.322 193.72 591.439 195.048 591.183 196.597C590.928 198.159 590.363 199.477 589.49 200.549C588.623 201.614 587.519 202.424 586.176 202.978C584.841 203.525 583.343 203.798 581.681 203.798H576.056L576.823 199.196H581.254C581.95 199.196 582.561 199.111 583.087 198.94C583.612 198.763 584.039 198.486 584.365 198.109C584.692 197.726 584.905 197.222 585.004 196.597C585.104 195.972 585.054 195.464 584.855 195.073C584.656 194.675 584.326 194.384 583.865 194.2C583.403 194.008 582.831 193.912 582.149 193.912H580.061L577.206 211H571.283ZM585.729 200.986L589.521 211H583.087L579.422 200.986H585.729ZM614.498 200.474C614.101 202.847 613.312 204.835 612.133 206.44C610.954 208.045 609.523 209.256 607.84 210.073C606.157 210.89 604.356 211.298 602.439 211.298C600.393 211.298 598.618 210.854 597.112 209.967C595.606 209.079 594.509 207.779 593.82 206.067C593.131 204.356 592.993 202.264 593.405 199.793C593.788 197.42 594.569 195.425 595.748 193.805C596.927 192.186 598.366 190.961 600.063 190.13C601.76 189.299 603.575 188.884 605.507 188.884C607.538 188.884 609.303 189.331 610.802 190.226C612.307 191.121 613.401 192.431 614.083 194.157C614.772 195.883 614.91 197.989 614.498 200.474ZM608.532 199.793C608.731 198.543 608.746 197.491 608.575 196.639C608.405 195.78 608.046 195.134 607.499 194.7C606.952 194.26 606.217 194.04 605.294 194.04C604.243 194.04 603.312 194.295 602.503 194.807C601.693 195.318 601.022 196.053 600.489 197.012C599.956 197.971 599.584 199.125 599.371 200.474C599.143 201.739 599.122 202.79 599.307 203.628C599.498 204.466 599.875 205.094 600.436 205.513C601.004 205.933 601.743 206.142 602.652 206.142C603.689 206.142 604.605 205.893 605.4 205.396C606.203 204.899 606.867 204.178 607.393 203.234C607.925 202.289 608.305 201.142 608.532 199.793ZM616.696 189.182H623.301L626.071 198.045H626.284L631.994 189.182H638.599L628.116 204.139L626.966 211H621.085L622.235 204.139L616.696 189.182ZM636.908 211L640.53 189.182H656.254L655.445 193.955H645.644L645.047 197.705H654.039L653.229 202.477H644.237L643.641 206.227H653.399L652.59 211H636.908ZM655.57 211L659.192 189.182H668.61C670.229 189.182 671.596 189.477 672.711 190.066C673.826 190.656 674.629 191.504 675.119 192.612C675.609 193.72 675.726 195.048 675.471 196.597C675.215 198.159 674.65 199.477 673.777 200.549C672.91 201.614 671.806 202.424 670.463 202.978C669.128 203.525 667.63 203.798 665.968 203.798H660.343L661.11 199.196H665.542C666.238 199.196 666.848 199.111 667.374 198.94C667.9 198.763 668.326 198.486 668.652 198.109C668.979 197.726 669.192 197.222 669.292 196.597C669.391 195.972 669.341 195.464 669.142 195.073C668.944 194.675 668.613 194.384 668.152 194.2C667.69 194.008 667.118 193.912 666.436 193.912H664.348L661.493 211H655.57ZM670.016 200.986L673.809 211H667.374L663.709 200.986H670.016ZM690.135 196C690.199 195.297 690.028 194.746 689.624 194.349C689.219 193.944 688.537 193.741 687.578 193.741C686.967 193.741 686.456 193.812 686.044 193.955C685.639 194.097 685.323 194.292 685.096 194.54C684.876 194.789 684.737 195.077 684.68 195.403C684.616 195.659 684.62 195.893 684.691 196.107C684.769 196.312 684.915 196.501 685.128 196.671C685.348 196.842 685.636 196.994 685.991 197.129C686.353 197.264 686.783 197.385 687.28 197.491L688.984 197.875C690.149 198.131 691.126 198.468 691.914 198.887C692.71 199.299 693.335 199.789 693.789 200.357C694.244 200.925 694.542 201.561 694.684 202.264C694.833 202.967 694.837 203.734 694.695 204.565C694.453 206 693.896 207.214 693.022 208.209C692.148 209.203 691.009 209.96 689.602 210.478C688.196 210.996 686.57 211.256 684.723 211.256C682.834 211.256 681.229 210.975 679.908 210.414C678.594 209.846 677.642 208.979 677.053 207.815C676.47 206.643 676.328 205.148 676.626 203.33H682.251C682.166 203.997 682.237 204.558 682.464 205.013C682.692 205.467 683.058 205.812 683.562 206.046C684.066 206.281 684.695 206.398 685.447 206.398C686.087 206.398 686.634 206.32 687.088 206.163C687.543 206.007 687.901 205.79 688.164 205.513C688.427 205.237 688.587 204.92 688.643 204.565C688.7 204.239 688.643 203.947 688.473 203.692C688.303 203.436 687.994 203.205 687.546 202.999C687.099 202.793 686.484 202.605 685.703 202.435L683.615 201.966C681.761 201.54 680.362 200.837 679.418 199.857C678.473 198.876 678.139 197.534 678.416 195.83C678.643 194.437 679.215 193.223 680.131 192.186C681.055 191.142 682.227 190.332 683.647 189.757C685.075 189.175 686.655 188.884 688.388 188.884C690.149 188.884 691.623 189.178 692.809 189.768C694.002 190.357 694.858 191.185 695.376 192.25C695.902 193.315 696.044 194.565 695.803 196H690.135Z" fill="white"/>
</g>
<g filter="url(#filter1_d_28_26)">
<path d="M729.926 200.474C729.528 202.847 728.74 204.835 727.561 206.44C726.382 208.045 724.951 209.256 723.268 210.073C721.585 210.89 719.784 211.298 717.866 211.298C715.821 211.298 714.045 210.854 712.54 209.967C711.034 209.079 709.937 207.779 709.248 206.067C708.559 204.356 708.42 202.264 708.832 199.793C709.216 197.42 709.997 195.425 711.176 193.805C712.355 192.186 713.793 190.961 715.491 190.13C717.188 189.299 719.003 188.884 720.935 188.884C722.966 188.884 724.731 189.331 726.229 190.226C727.735 191.121 728.829 192.431 729.511 194.157C730.2 195.883 730.338 197.989 729.926 200.474ZM723.96 199.793C724.159 198.543 724.173 197.491 724.003 196.639C723.832 195.78 723.474 195.134 722.927 194.7C722.38 194.26 721.645 194.04 720.722 194.04C719.67 194.04 718.74 194.295 717.93 194.807C717.121 195.318 716.45 196.053 715.917 197.012C715.384 197.971 715.011 199.125 714.798 200.474C714.571 201.739 714.55 202.79 714.734 203.628C714.926 204.466 715.303 205.094 715.864 205.513C716.432 205.933 717.17 206.142 718.08 206.142C719.116 206.142 720.033 205.893 720.828 205.396C721.631 204.899 722.295 204.178 722.82 203.234C723.353 202.289 723.733 201.142 723.96 199.793ZM730.92 211L734.542 189.182H749.883L749.073 193.955H739.655L739.059 197.705H747.539L746.729 202.477H738.249L736.843 211H730.92Z" fill="#666666"/>
</g>
<g filter="url(#filter2_d_28_26)">
<path d="M762.405 193.955L763.215 189.182H782.178L781.368 193.955H774.806L771.993 211H766.155L768.968 193.955H762.405ZM780.785 211L784.407 189.182H800.131L799.322 193.955H789.521L788.924 197.705H797.915L797.106 202.477H788.114L787.518 206.227H797.276L796.467 211H780.785ZM822.053 197.364H816.13C816.173 196.859 816.144 196.405 816.045 196C815.945 195.595 815.775 195.247 815.534 194.956C815.292 194.658 814.976 194.43 814.585 194.274C814.195 194.118 813.73 194.04 813.19 194.04C812.153 194.04 811.226 194.299 810.409 194.817C809.593 195.329 808.914 196.064 808.374 197.023C807.835 197.974 807.451 199.111 807.224 200.432C807.025 201.71 807.018 202.772 807.203 203.617C807.394 204.462 807.767 205.094 808.321 205.513C808.882 205.933 809.61 206.142 810.505 206.142C811.102 206.142 811.649 206.071 812.146 205.929C812.65 205.787 813.097 205.585 813.488 205.322C813.886 205.052 814.223 204.732 814.5 204.363C814.784 203.987 815.001 203.571 815.15 203.116H821.116C820.889 204.04 820.484 204.984 819.901 205.95C819.319 206.909 818.566 207.793 817.643 208.603C816.72 209.406 815.633 210.055 814.383 210.553C813.133 211.05 811.727 211.298 810.164 211.298C808.119 211.298 806.354 210.851 804.869 209.956C803.392 209.061 802.32 207.754 801.652 206.036C800.992 204.317 800.86 202.222 801.258 199.75C801.656 197.364 802.441 195.364 803.612 193.752C804.784 192.14 806.208 190.925 807.884 190.109C809.561 189.292 811.343 188.884 813.232 188.884C814.66 188.884 815.938 189.072 817.068 189.448C818.204 189.825 819.159 190.375 819.933 191.099C820.715 191.817 821.29 192.701 821.659 193.752C822.029 194.803 822.16 196.007 822.053 197.364ZM822.504 211L826.126 189.182H832.049L830.643 197.705H838.484L839.89 189.182H845.813L842.191 211H836.268L837.674 202.477H829.833L828.427 211H822.504ZM847.219 193.955L848.029 189.182H866.992L866.183 193.955H859.62L856.808 211H850.969L853.782 193.955H847.219ZM887.457 200.474C887.06 202.847 886.271 204.835 885.092 206.44C883.913 208.045 882.482 209.256 880.799 210.073C879.116 210.89 877.315 211.298 875.398 211.298C873.352 211.298 871.577 210.854 870.071 209.967C868.565 209.079 867.468 207.779 866.779 206.067C866.09 204.356 865.952 202.264 866.364 199.793C866.747 197.42 867.528 195.425 868.707 193.805C869.886 192.186 871.325 190.961 873.022 190.13C874.719 189.299 876.534 188.884 878.466 188.884C880.497 188.884 882.262 189.331 883.761 190.226C885.266 191.121 886.36 192.431 887.042 194.157C887.731 195.883 887.869 197.989 887.457 200.474ZM881.491 199.793C881.69 198.543 881.705 197.491 881.534 196.639C881.364 195.78 881.005 195.134 880.458 194.7C879.911 194.26 879.176 194.04 878.253 194.04C877.202 194.04 876.271 194.295 875.462 194.807C874.652 195.318 873.981 196.053 873.448 197.012C872.915 197.971 872.543 199.125 872.33 200.474C872.102 201.739 872.081 202.79 872.266 203.628C872.457 204.466 872.834 205.094 873.395 205.513C873.963 205.933 874.702 206.142 875.611 206.142C876.648 206.142 877.564 205.893 878.359 205.396C879.162 204.899 879.826 204.178 880.352 203.234C880.884 202.289 881.264 201.142 881.491 199.793ZM888.451 211L892.073 189.182H897.996L896.547 198.003H896.846L904.857 189.182H911.76L902.812 198.898L908.309 211H901.235L897.741 202.818L895.312 205.418L894.374 211H888.451Z" fill="url(#paint0_linear_28_26)"/>
</g>
<defs>
<filter id="filter0_d_28_26" x="484.043" y="182.884" width="222.122" height="38.4148" filterUnits="userSpaceOnUse" color-interpolation-filters="sRGB">
<feFlood flood-opacity="0" result="BackgroundImageFix"/>
<feColorMatrix in="SourceAlpha" type="matrix" values="0 0 0 0 0 0 0 0 0 0 0 0 0 0 0 0 0 0 127 0" result="hardAlpha"/>
<feOffset dx="2" dy="2"/>
<feGaussianBlur stdDeviation="4"/>
<feComposite in2="hardAlpha" operator="out"/>
<feColorMatrix type="matrix" values="0 0 0 0 0 0 0 0 0 0 0 0 0 0 0 0 0 0 0.25 0"/>
<feBlend mode="normal" in2="BackgroundImageFix" result="effect1_dropShadow_28_26"/>
<feBlend mode="normal" in="SourceGraphic" in2="effect1_dropShadow_28_26" result="shape"/>
</filter>
<filter id="filter1_d_28_26" x="702.214" y="182.884" width="57.6682" height="38.4148" filterUnits="userSpaceOnUse" color-interpolation-filters="sRGB">
<feFlood flood-opacity="0" result="BackgroundImageFix"/>
<feColorMatrix in="SourceAlpha" type="matrix" values="0 0 0 0 0 0 0 0 0 0 0 0 0 0 0 0 0 0 127 0" result="hardAlpha"/>
<feOffset dx="2" dy="2"/>
<feGaussianBlur stdDeviation="4"/>
<feComposite in2="hardAlpha" operator="out"/>
<feColorMatrix type="matrix" values="0 0 0 0 0 0 0 0 0 0 0 0 0 0 0 0 0 0 0.25 0"/>
<feBlend mode="normal" in2="BackgroundImageFix" result="effect1_dropShadow_28_26"/>
<feBlend mode="normal" in="SourceGraphic" in2="effect1_dropShadow_28_26" result="shape"/>
</filter>
<filter id="filter2_d_28_26" x="758.405" y="188.884" width="157.355" height="30.4148" filterUnits="userSpaceOnUse" color-interpolation-filters="sRGB">
<feFlood flood-opacity="0" result="BackgroundImageFix"/>
<feColorMatrix in="SourceAlpha" type="matrix" values="0 0 0 0 0 0 0 0 0 0 0 0 0 0 0 0 0 0 127 0" result="hardAlpha"/>
<feOffset dy="4"/>
<feGaussianBlur stdDeviation="2"/>
<feComposite in2="hardAlpha" operator="out"/>
<feColorMatrix type="matrix" values="0 0 0 0 0 0 0 0 0 0 0 0 0 0 0 0 0 0 0.25 0"/>
<feBlend mode="normal" in2="BackgroundImageFix" result="effect1_dropShadow_28_26"/>
<feBlend mode="normal" in="SourceGraphic" in2="effect1_dropShadow_28_26" result="shape"/>
</filter>
<linearGradient id="paint0_linear_28_26" x1="760" y1="211" x2="865.893" y2="130.778" gradientUnits="userSpaceOnUse">
<stop stop-color="#D920BC"/>
<stop offset="1" stop-color="#7DBBF4"/>
</linearGradient>
</defs>
</svg>
